<svg width="821" height="149" viewBox="0 0 821 149" fill="none" xmlns="http://www.w3.org/2000/svg">
<rect y="2" width="29.9036" height="145" fill="#268113"/>
<rect x="77.3975" y="2" width="29.9036" height="145" fill="#B37E03"/>
<rect x="116.097" y="2" width="29.9036" height="145" fill="#FF0000"/>
<rect x="38.6992" y="2" width="29.9036" height="145" fill="#268113"/>
<path d="M197.112 121.536C189.773 121.536 183.459 120.171 178.168 117.44C172.963 114.624 168.952 110.699 166.136 105.664C163.405 100.544 162.04 94.528 162.04 87.616H182.776C182.776 92.992 183.928 97.1307 186.232 100.032C188.621 102.848 192.248 104.256 197.112 104.256C200.952 104.256 203.981 103.445 206.2 101.824C208.504 100.117 209.656 97.728 209.656 94.656C209.656 92.352 208.803 90.56 207.096 89.28C205.475 87.9147 203.256 86.8053 200.44 85.952C197.709 85.0133 194.68 84.16 191.352 83.392C188.109 82.5387 184.824 81.5147 181.496 80.32C178.253 79.1253 175.224 77.5467 172.408 75.584C169.677 73.6213 167.459 71.0613 165.752 67.904C164.131 64.7467 163.32 60.736 163.32 55.872C163.32 50.8373 164.685 46.3147 167.416 42.304C170.232 38.2933 174.115 35.0933 179.064 32.704C184.013 30.3147 189.816 29.12 196.472 29.12C202.531 29.12 208.163 30.3147 213.368 32.704C218.573 35.008 222.797 38.3787 226.04 42.816C229.283 47.2533 230.989 52.7147 231.16 59.2H210.04C209.869 56.2987 209.101 53.9093 207.736 52.032C206.456 50.1547 204.792 48.7467 202.744 47.808C200.781 46.8693 198.691 46.4 196.472 46.4C193.315 46.4 190.627 47.168 188.408 48.704C186.189 50.1547 185.08 52.3307 185.08 55.232C185.08 57.4507 185.891 59.2 187.512 60.48C189.219 61.76 191.437 62.8267 194.168 63.68C196.984 64.448 200.013 65.216 203.256 65.984C206.584 66.752 209.869 67.7333 213.112 68.928C216.44 70.0373 219.469 71.616 222.2 73.664C225.016 75.712 227.235 78.4427 228.856 81.856C230.563 85.184 231.416 89.4507 231.416 94.656C231.416 99.8613 229.923 104.512 226.936 108.608C224.035 112.619 219.981 115.776 214.776 118.08C209.656 120.384 203.768 121.536 197.112 121.536ZM285.61 120C280.831 120 276.607 118.933 272.938 116.8C269.354 114.581 266.581 111.552 264.618 107.712C262.655 103.787 261.674 99.3493 261.674 94.4V36.928L281.642 27.968V94.4C281.642 96.6187 281.941 98.4533 282.538 99.904C283.221 101.269 284.415 102.293 286.122 102.976C287.914 103.573 290.389 103.872 293.546 103.872H311.594V120H285.61ZM247.594 64.96V48.832H298.922V64.96H247.594ZM376.924 120L376.284 107.2V72.128C376.284 68.8 375.047 66.1973 372.572 64.32C370.097 62.3573 366.684 61.376 362.332 61.376C358.151 61.376 354.737 62.272 352.092 64.064C349.532 65.7707 348.039 68.2027 347.612 71.36H328.284C328.711 66.3253 330.417 62.016 333.404 58.432C336.391 54.848 340.401 52.1173 345.436 50.24C350.556 48.2773 356.487 47.296 363.228 47.296C369.884 47.296 375.687 48.32 380.636 50.368C385.585 52.3307 389.383 55.2747 392.028 59.2C394.759 63.04 396.124 67.776 396.124 73.408V120H376.924ZM354.14 121.536C349.447 121.536 345.308 120.64 341.724 118.848C338.14 116.971 335.367 114.411 333.404 111.168C331.441 107.925 330.46 104.256 330.46 100.16C330.46 92.8213 333.276 87.1467 338.908 83.136C344.625 79.04 352.476 76.992 362.46 76.992H378.204V90.816L361.948 90.944C358.279 90.944 355.335 91.6267 353.116 92.992C350.983 94.272 349.916 96.2347 349.916 98.88C349.916 100.757 350.684 102.379 352.22 103.744C353.841 105.109 356.103 105.792 359.004 105.792C363.015 105.792 366.556 104.811 369.628 102.848C372.785 100.8 375.388 98.0267 377.436 94.528L379.612 107.968C377.479 112.661 374.193 116.117 369.756 118.336C365.404 120.469 360.199 121.536 354.14 121.536ZM452.11 120C447.331 120 443.107 118.933 439.438 116.8C435.854 114.581 433.081 111.552 431.118 107.712C429.155 103.787 428.174 99.3493 428.174 94.4V36.928L448.142 27.968V94.4C448.142 96.6187 448.441 98.4533 449.038 99.904C449.721 101.269 450.915 102.293 452.622 102.976C454.414 103.573 456.889 103.872 460.046 103.872H478.094V120H452.11ZM414.094 64.96V48.832H465.422V64.96H414.094ZM514.496 48.832V92.736C514.496 96.4053 515.435 99.3493 517.312 101.568C519.189 103.787 521.664 104.896 524.736 104.896C528.235 104.896 531.435 103.744 534.336 101.44C537.323 99.0507 540.437 94.9973 543.68 89.28L546.496 106.176C543.253 111.723 539.328 115.691 534.72 118.08C530.112 120.384 525.419 121.536 520.64 121.536C515.179 121.536 510.485 120.384 506.56 118.08C502.72 115.776 499.733 112.576 497.6 108.48C495.552 104.384 494.528 99.5627 494.528 94.016V48.832H514.496ZM561.984 48.832V120H542.656L542.016 107.328V48.832H561.984ZM614.642 121.536C607.986 121.536 602.141 120.469 597.106 118.336C592.071 116.117 588.146 113.003 585.33 108.992C582.599 104.896 581.191 100.075 581.106 94.528H599.666C599.495 98.4533 600.733 101.525 603.378 103.744C606.109 105.963 609.821 107.072 614.514 107.072C617.927 107.072 620.658 106.517 622.706 105.408C624.839 104.213 625.906 102.592 625.906 100.544C625.906 98.752 625.095 97.344 623.474 96.32C621.938 95.2107 619.89 94.3573 617.33 93.76C614.77 93.0773 611.954 92.4373 608.882 91.84C605.81 91.1573 602.695 90.3467 599.538 89.408C596.466 88.4693 593.65 87.232 591.09 85.696C588.53 84.0747 586.439 81.984 584.818 79.424C583.282 76.7787 582.514 73.4933 582.514 69.568C582.514 65.0453 583.794 61.12 586.354 57.792C588.914 54.464 592.455 51.904 596.978 50.112C601.586 48.2347 606.877 47.296 612.85 47.296C621.981 47.296 629.362 49.4293 634.994 53.696C640.711 57.8773 643.869 63.7653 644.466 71.36H626.034C625.863 68.2027 624.583 65.8133 622.194 64.192C619.805 62.5707 616.733 61.76 612.978 61.76C609.821 61.76 607.303 62.3147 605.426 63.424C603.549 64.5333 602.61 66.1973 602.61 68.416C602.61 70.208 603.378 71.616 604.914 72.64C606.535 73.5787 608.626 74.3467 611.186 74.944C613.746 75.5413 616.562 76.096 619.634 76.608C622.791 77.12 625.906 77.8453 628.978 78.784C632.05 79.6373 634.866 80.832 637.426 82.368C639.986 83.904 642.034 85.952 643.57 88.512C645.191 91.072 646.002 94.3573 646.002 98.368C646.002 105.621 643.143 111.296 637.426 115.392C631.794 119.488 624.199 121.536 614.642 121.536ZM662.308 120V105.536C673.316 97.856 682.148 91.1147 688.804 85.312C695.545 79.5093 700.452 74.3893 703.524 69.952C706.596 65.4293 708.132 61.2907 708.132 57.536C708.132 54.1227 707.023 51.4347 704.804 49.472C702.585 47.5093 699.769 46.528 696.356 46.528C692.345 46.528 689.017 47.8933 686.372 50.624C683.727 53.3547 682.489 57.024 682.66 61.632H661.796C661.881 54.8907 663.417 49.088 666.404 44.224C669.391 39.36 673.487 35.648 678.692 33.088C683.983 30.4427 690.041 29.12 696.868 29.12C703.268 29.12 708.943 30.272 713.892 32.576C718.927 34.88 722.852 38.1227 725.668 42.304C728.484 46.4853 729.892 51.392 729.892 57.024C729.892 62.7413 728.697 68.0747 726.308 73.024C723.919 77.9733 720.079 82.88 714.788 87.744C709.583 92.5227 702.671 97.5147 694.052 102.72H730.02V120H662.308ZM782.166 120V100.544H740.95V86.08L774.742 30.656H803.926V83.264H818.006V100.544H803.926V120H782.166ZM762.198 83.264H782.166V65.984L782.678 46.656L773.334 63.808L762.198 83.264Z" fill="white"/>
</svg>
